{"asset":{"version":"2.0","generator":"Blockbench 4.9.4 glTF exporter"},"scenes":[{"nodes":[12],"name":"blockbench_export"}],"scene":0,"nodes":[{"name":"cube","mesh":0},{"name":"cube","mesh":1},{"name":"sphere","mesh":2},{"name":"cube","mesh":3},{"name":"tube","mesh":4},{"name":"sphere","mesh":5},{"name":"cube","mesh":6},{"name":"cube","mesh":7},{"name":"sphere","mesh":8},{"name":"cylinder","mesh":9},{"name":"cone","mesh":10},{"name":"cylinder","mesh":11},{"children":[0,1,2,3,4,5,6,7,8,9,10,11]}],"bufferViews":[{"buffer":0,"byteOffset":0,"byteLength":288,"target":34962,"byteStride":12},{"buffer":0,"byteOffset":288,"byteLength":288,"target":34962,"byteStride":12},{"buffer":0,"byteOffset":576,"byteLength":192,"target":34962,"byteStride":8},{"buffer":0,"byteOffset":768,"byteLength":72,"target":34963},{"buffer":0,"byteOffset":840,"byteLength":288,"target":34962,"byteStride":12},{"buffer":0,"byteOffset":1128,"byteLength":288,"target":34962,"byteStride":12},{"buffer":0,"byteOffset":1416,"byteLength":192,"target":34962,"byteStride":8},{"buffer":0,"byteOffset":1608,"byteLength":72,"target":34963},{"buffer":0,"byteOffset":1680,"byteLength":3168,"target":34962,"byteStride":12},{"buffer":0,"byteOffset":4848,"byteLength":3168,"target":34962,"byteStride":12},{"buffer":0,"byteOffset":8016,"byteLength":2112,"target":34962,"byteStride":8},{"buffer":0,"byteOffset":10128,"byteLength":720,"target":34963},{"buffer":0,"byteOffset":10848,"byteLength":288,"target":34962,"byteStride":12},{"buffer":0,"byteOffset":11136,"byteLength":288,"target":34962,"byteStride":12},{"buffer":0,"byteOffset":11424,"byteLength":192,"target":34962,"byteStride":8},{"buffer":0,"byteOffset":11616,"byteLength":72,"target":34963},{"buffer":0,"byteOffset":11688,"byteLength":2304,"target":34962,"byteStride":12},{"buffer":0,"byteOffset":13992,"byteLength":2304,"target":34962,"byteStride":12},{"buffer":0,"byteOffset":16296,"byteLength":1536,"target":34962,"byteStride":8},{"buffer":0,"byteOffset":17832,"byteLength":576,"target":34963},{"buffer":0,"byteOffset":18408,"byteLength":3168,"target":34962,"byteStride":12},{"buffer":0,"byteOffset":21576,"byteLength":3168,"target":34962,"byteStride":12},{"buffer":0,"byteOffset":24744,"byteLength":2112,"target":34962,"byteStride":8},{"buffer":0,"byteOffset":26856,"byteLength":720,"target":34963},{"buffer":0,"byteOffset":27576,"byteLength":288,"target":34962,"byteStride":12},{"buffer":0,"byteOffset":27864,"byteLength":288,"target":34962,"byteStride":12},{"buffer":0,"byteOffset":28152,"byteLength":192,"target":34962,"byteStride":8},{"buffer":0,"byteOffset":28344,"byteLength":72,"target":34963},{"buffer":0,"byteOffset":28416,"byteLength":288,"target":34962,"byteStride":12},{"buffer":0,"byteOffset":28704,"byteLength":288,"target":34962,"byteStride":12},{"buffer":0,"byteOffset":28992,"byteLength":192,"target":34962,"byteStride":8},{"buffer":0,"byteOffset":29184,"byteLength":72,"target":34963},{"buffer":0,"byteOffset":29256,"byteLength":3168,"target":34962,"byteStride":12},{"buffer":0,"byteOffset":32424,"byteLength":3168,"target":34962,"byteStride":12},{"buffer":0,"byteOffset":35592,"byteLength":2112,"target":34962,"byteStride":8},{"buffer":0,"byteOffset":37704,"byteLength":720,"target":34963},{"buffer":0,"byteOffset":38424,"byteLength":1440,"target":34962,"byteStride":12},{"buffer":0,"byteOffset":39864,"byteLength":1440,"target":34962,"byteStride":12},{"buffer":0,"byteOffset":41304,"byteLength":960,"target":34962,"byteStride":8},{"buffer":0,"byteOffset":42264,"byteLength":288,"target":34963},{"buffer":0,"byteOffset":42552,"byteLength":864,"target":34962,"byteStride":12},{"buffer":0,"byteOffset":43416,"byteLength":864,"target":34962,"byteStride":12},{"buffer":0,"byteOffset":44280,"byteLength":576,"target":34962,"byteStride":8},{"buffer":0,"byteOffset":44856,"byteLength":144,"target":34963},{"buffer":0,"byteOffset":45000,"byteLength":1440,"target":34962,"byteStride":12},{"buffer":0,"byteOffset":46440,"byteLength":1440,"target":34962,"byteStride":12},{"buffer":0,"byteOffset":47880,"byteLength":960,"target":34962,"byteStride":8},{"buffer":0,"byteOffset":48840,"byteLength":288,"target":34963}],"buffers":[{"byteLength":49128,"uri":"data:application/octet-stream;base64,"}],"accessors":[{"bufferView":0,"componentType":5126,"count":24,"max":[0,0.19387748837471008,0.04058242589235306],"min":[-0.05000000074505806,0,-0.0488147996366024],"type":"VEC3"},{"bufferView":1,"componentType":5126,"count":24,"max":[1,0.9762960076332092,0.9762960076332092],"min":[-1,-0.9762960076332092,-0.9762960076332092],"type":"VEC3"},{"bufferView":2,"componentType":5126,"count":24,"max":[0.234375,0.375],"min":[0,0],"type":"VEC2"},{"bufferView":3,"componentType":5123,"count":36,"max":[23],"min":[0],"type":"SCALAR"},{"bufferView":4,"componentType":5126,"count":24,"max":[0.05000000074505806,0.19387748837471008,0.04058242589235306],"min":[0,0,-0.0488147996366024],"type":"VEC3"},{"bufferView":5,"componentType":5126,"count":24,"max":[1,0.9762960076332092,0.9762960076332092],"min":[-1,-0.9762960076332092,-0.9762960076332092],"type":"VEC3"},{"bufferView":6,"componentType":5126,"count":24,"max":[0.234375,0.375],"min":[0,0],"type":"VEC2"},{"bufferView":7,"componentType":5123,"count":36,"max":[23],"min":[0],"type":"SCALAR"},{"bufferView":8,"componentType":5126,"count":264,"max":[0.0625,0.48158830404281616,0.13506531715393066],"min":[-0.0625,0.3570639491081238,0.010540983639657497],"type":"VEC3"},{"bufferView":9,"componentType":5126,"count":264,"max":[0.9659258127212524,0.9848077297210693,0.9848077297210693],"min":[-0.9659258127212524,-0.9848077297210693,-0.9848077297210693],"type":"VEC3"},{"bufferView":10,"componentType":5126,"count":264,"max":[0.016750000417232513,0.01617497205734253],"min":[0,0],"type":"VEC2"},{"bufferView":11,"componentType":5123,"count":360,"max":[263],"min":[0],"type":"SCALAR"},{"bufferView":12,"componentType":5126,"count":24,"max":[0.0625,0.40625,0.05000000074505806],"min":[-0.0625,0.15625,-0.04374999925494194],"type":"VEC3"},{"bufferView":13,"componentType":5126,"count":24,"max":[1,1,1],"min":[-1,-1,-1],"type":"VEC3"},{"bufferView":14,"componentType":5126,"count":24,"max":[0.375,0.5],"min":[0,0],"type":"VEC2"},{"bufferView":15,"componentType":5123,"count":36,"max":[23],"min":[0],"type":"SCALAR"},{"bufferView":16,"componentType":5126,"count":192,"max":[0.03125,0.468818724155426,0.040456388145685196],"min":[-0.03125,0.39869552850723267,-0.029666803777217865],"type":"VEC3"},{"bufferView":17,"componentType":5126,"count":192,"max":[1,0.9914448857307434,0.9914448857307434],"min":[-1,-0.9914448857307434,-0.9914448857307434],"type":"VEC3"},{"bufferView":18,"componentType":5126,"count":192,"max":[0.30637499690055847,0.4375],"min":[0,0],"type":"VEC2"},{"bufferView":19,"componentType":5123,"count":288,"max":[191],"min":[0],"type":"SCALAR"},{"bufferView":20,"componentType":5126,"count":264,"max":[0.078125,0.5693419575691223,0.05261401832103729],"min":[-0.078125,0.415465772151947,-0.10126219689846039],"type":"VEC3"},{"bufferView":21,"componentType":5126,"count":264,"max":[0.9659258127212524,0.9961947202682495,0.9961947202682495],"min":[-0.9659258127212524,-0.9961947202682495,-0.9961947202682495],"type":"VEC3"},{"bufferView":22,"componentType":5126,"count":264,"max":[0.6315661072731018,0.5625],"min":[0.0012120078317821026,0],"type":"VEC2"},{"bufferView":23,"componentType":5123,"count":360,"max":[263],"min":[0],"type":"SCALAR"},{"bufferView":24,"componentType":5126,"count":24,"max":[-0.0040939669124782085,0.3213988244533539,0.01791585050523281],"min":[-0.09576940536499023,0.1642531305551529,-0.13393142819404602],"type":"VEC3"},{"bufferView":25,"componentType":5126,"count":24,"max":[0.9211761355400085,0.6871781349182129,0.7254942059516907],"min":[-0.9211761355400085,-0.6871781349182129,-0.7254942059516907],"type":"VEC3"},{"bufferView":26,"componentType":5126,"count":24,"max":[0.21875,0.34375],"min":[0,0],"type":"VEC2"},{"bufferView":27,"componentType":5123,"count":36,"max":[23],"min":[0],"type":"SCALAR"},{"bufferView":28,"componentType":5126,"count":24,"max":[0.09216386824846268,0.3182947635650635,0.009077241644263268],"min":[-0.00619139801710844,0.19996531307697296,-0.16148607432842255],"type":"VEC3"},{"bufferView":29,"componentType":5126,"count":24,"max":[0.9023048281669617,0.8636564016342163,0.8755543828010559],"min":[-0.9023048281669617,-0.8636564016342163,-0.8755543828010559],"type":"VEC3"},{"bufferView":30,"componentType":5126,"count":24,"max":[0.21875,0.34375],"min":[0,0],"type":"VEC2"},{"bufferView":31,"componentType":5123,"count":36,"max":[23],"min":[0],"type":"SCALAR"},{"bufferView":32,"componentType":5126,"count":264,"max":[0.0625,0.13350063562393188,0.27679911255836487],"min":[-0.0625,-0.014347683638334274,0.04582922160625458],"type":"VEC3"},{"bufferView":33,"componentType":5126,"count":264,"max":[0.9911444187164307,0.9974842071533203,0.995078444480896],"min":[-0.9911444187164307,-0.9974842071533203,-0.995078444480896],"type":"VEC3"},{"bufferView":34,"componentType":5126,"count":264,"max":[0.016750000417232513,0.01617497205734253],"min":[0,0],"type":"VEC2"},{"bufferView":35,"componentType":5123,"count":360,"max":[263],"min":[0],"type":"SCALAR"},{"bufferView":36,"componentType":5126,"count":120,"max":[0.0062500000931322575,0.2718576490879059,0.16784913837909698],"min":[-0.0062500000931322575,0.049219656735658646,-0.29058748483657837],"type":"VEC3"},{"bufferView":37,"componentType":5126,"count":120,"max":[1,0.9063078165054321,0.9063077569007874],"min":[-1,-0.9063078165054321,-0.9063077569007874],"type":"VEC3"},{"bufferView":38,"componentType":5126,"count":120,"max":[0.032352790236473083,0.5],"min":[0,0],"type":"VEC2"},{"bufferView":39,"componentType":5123,"count":144,"max":[119],"min":[0],"type":"SCALAR"},{"bufferView":40,"componentType":5126,"count":72,"max":[0.09375,0.6975176930427551,0.0673312097787857],"min":[-0.09375,0.49417099356651306,-0.11572429537773132],"type":"VEC3"},{"bufferView":41,"componentType":5126,"count":72,"max":[0.8944271802902222,0.6302023530006409,0.7764309644699097],"min":[-0.8944271802902222,-0.9762960076332092,-0.9700204133987427],"type":"VEC3"},{"bufferView":42,"componentType":5126,"count":72,"max":[0.032352790236473083,0.5009750127792358],"min":[0,0],"type":"VEC2"},{"bufferView":43,"componentType":5123,"count":72,"max":[71],"min":[0],"type":"SCALAR"},{"bufferView":44,"componentType":5126,"count":120,"max":[0.125,0.548359751701355,0.10595694184303284],"min":[-0.125,0.4820461571216583,-0.14082255959510803],"type":"VEC3"},{"bufferView":45,"componentType":5126,"count":120,"max":[1,0.9762960076332092,0.9762960076332092],"min":[-1,-0.9762960076332092,-0.9762960076332092],"type":"VEC3"},{"bufferView":46,"componentType":5126,"count":120,"max":[0.032352790236473083,0.5],"min":[0,0],"type":"VEC2"},{"bufferView":47,"componentType":5123,"count":144,"max":[119],"min":[0],"type":"SCALAR"}],"materials":[{"pbrMetallicRoughness":{"metallicFactor":0,"roughnessFactor":1},"alphaMode":"MASK","alphaCutoff":0.05,"doubleSided":true}],"meshes":[{"primitives":[{"mode":4,"attributes":{"POSITION":0,"NORMAL":1,"TEXCOORD_0":2},"indices":3,"material":0}]},{"primitives":[{"mode":4,"attributes":{"POSITION":4,"NORMAL":5,"TEXCOORD_0":6},"indices":7,"material":0}]},{"primitives":[{"mode":4,"attributes":{"POSITION":8,"NORMAL":9,"TEXCOORD_0":10},"indices":11,"material":0}]},{"primitives":[{"mode":4,"attributes":{"POSITION":12,"NORMAL":13,"TEXCOORD_0":14},"indices":15,"material":0}]},{"primitives":[{"mode":4,"attributes":{"POSITION":16,"NORMAL":17,"TEXCOORD_0":18},"indices":19,"material":0}]},{"primitives":[{"mode":4,"attributes":{"POSITION":20,"NORMAL":21,"TEXCOORD_0":22},"indices":23,"material":0}]},{"primitives":[{"mode":4,"attributes":{"POSITION":24,"NORMAL":25,"TEXCOORD_0":26},"indices":27,"material":0}]},{"primitives":[{"mode":4,"attributes":{"POSITION":28,"NORMAL":29,"TEXCOORD_0":30},"indices":31,"material":0}]},{"primitives":[{"mode":4,"attributes":{"POSITION":32,"NORMAL":33,"TEXCOORD_0":34},"indices":35,"material":0}]},{"primitives":[{"mode":4,"attributes":{"POSITION":36,"NORMAL":37,"TEXCOORD_0":38},"indices":39,"material":0}]},{"primitives":[{"mode":4,"attributes":{"POSITION":40,"NORMAL":41,"TEXCOORD_0":42},"indices":43,"material":0}]},{"primitives":[{"mode":4,"attributes":{"POSITION":44,"NORMAL":45,"TEXCOORD_0":46},"indices":47,"material":0}]}]}